<svg xmlns="http://www.w3.org/2000/svg" viewBox="0 0 512 512">
  <rect width="512" height="512" rx="100" fill="#0f172a"/>
  <path d="M256 360c-48.5 0-88-39.5-88-88v-120c0-48.5 39.5-88 88-88s88 39.5 88 88v120c0 48.5-39.5 88-88 88zm0-184c-17.6 0-32 14.4-32 32v120c0 17.6 14.4 32 32 32s32-14.4 32-32v-120c0-17.6-14.4-32-32-32z" fill="#3b82f6"/>
  <path d="M384 272c-13.2 0-24 10.8-24 24 0 57.3-46.7 104-104 104s-104-46.7-104-104c0-13.2-10.8-24-24-24s-24 10.8-24 24c0 83.8 68.2 152 152 152v40h-48c-13.2 0-24 10.8-24 24s10.8 24 24 24h96c13.2 0 24-10.8 24-24s-10.8-24-24-24h-48v-40c83.8 0 152-68.2 152-152 0-13.2-10.8-24-24-24z" fill="#3b82f6"/>
</svg>
